<svg width="49" height="48" viewBox="0 0 49 48" fill="none" xmlns="http://www.w3.org/2000/svg">
<path d="M30.0396 11.0765C23.9224 11.0765 11.6689 6.11753 11.6689 0H11.5783C11.5783 4.89618 13.5233 9.59183 16.9853 13.054C20.4474 16.5162 25.1429 18.4613 30.0391 18.4615C32.9768 18.4615 35.7943 19.6285 37.8717 21.7058C39.9491 23.7831 41.1161 26.6005 41.1161 29.5382C41.1167 32.4759 39.9502 35.2938 37.8733 37.3714C35.7964 39.4493 32.9791 40.6167 30.0414 40.6174C27.1035 40.6179 24.2858 39.4514 22.2081 37.3744C20.1304 35.2975 18.9628 32.4803 18.9622 29.5426C18.9621 27.1181 18.4845 24.7174 17.5567 22.4777C16.6288 20.2378 15.2689 18.2027 13.5545 16.4884C11.8402 14.7741 9.80493 13.4143 7.56502 12.4866C5.32513 11.5589 2.92441 11.0815 0.5 11.0816V11.1714C6.61637 11.1714 11.5753 23.4196 11.5776 29.538H11.5765C11.5765 33.1894 12.6591 36.7588 14.6876 39.7948C16.7162 42.8307 19.5994 45.1971 22.9728 46.5944C26.3461 47.9919 30.0581 48.3577 33.6394 47.6453C37.2204 46.9331 40.51 45.1749 43.0921 42.5933C45.674 40.0114 47.4324 36.7221 48.145 33.1408C48.8577 29.5597 48.4921 25.8478 47.095 22.4742C45.698 19.1008 43.3319 16.2173 40.2961 14.1885C37.2601 12.1598 33.6908 11.0768 30.0396 11.0765Z" fill="url(#paint0_linear_57_10)"/>
<defs>
<linearGradient id="paint0_linear_57_10" x1="38.756" y1="41.52" x2="10.868" y2="3.216" gradientUnits="userSpaceOnUse">
<stop offset="0.295" stop-color="#E73959"/>
<stop offset="0.384" stop-color="#E73D58"/>
<stop offset="0.477" stop-color="#E74955"/>
<stop offset="0.571" stop-color="#E95E51"/>
<stop offset="0.666" stop-color="#EA7B4B"/>
<stop offset="0.761" stop-color="#EDA044"/>
<stop offset="0.857" stop-color="#EFCE3B"/>
<stop offset="0.868" stop-color="#F0D43A"/>
</linearGradient>
</defs>
</svg>
